<?xml version="1.0" encoding="UTF-8"?><svg xmlns="http://www.w3.org/2000/svg" xmlns:xlink="http://www.w3.org/1999/xlink" height="3750.0" preserveAspectRatio="xMidYMid meet" version="1.0" viewBox="0.0 0.0 2285.8 3750.0" width="2285.8" zoomAndPan="magnify"><defs><clipPath id="a"><path d="M 0 0 L 2285.820312 0 L 2285.820312 3223 L 0 3223 Z M 0 0"/></clipPath></defs><g><g id="change1_2"><path d="M 1147.058594 1904.3125 C 742.222656 1904.3125 412.863281 1574.953125 412.863281 1170.109375 C 412.863281 765.265625 742.222656 435.902344 1147.058594 435.902344 C 1551.898438 435.902344 1881.257812 765.265625 1881.257812 1170.109375 C 1881.257812 1574.953125 1551.898438 1904.3125 1147.058594 1904.3125 Z M 1147.058594 371.988281 C 706.972656 371.988281 348.941406 730.015625 348.941406 1170.109375 C 348.941406 1610.183594 706.972656 1968.230469 1147.058594 1968.230469 C 1587.148438 1968.230469 1945.175781 1610.183594 1945.175781 1170.109375 C 1945.175781 730.015625 1587.148438 371.988281 1147.058594 371.988281" fill="#333"/></g><g clip-path="url(#a)" id="change1_1"><path d="M 1158.398438 3118.390625 L 1142.917969 3138.519531 L 1127.4375 3118.390625 C 1084.015625 3061.902344 63.921875 1728.234375 63.921875 1142.902344 C 63.921875 547.964844 547.953125 63.917969 1142.917969 63.917969 C 1737.867188 63.917969 2221.898438 547.964844 2221.898438 1142.902344 C 2221.898438 1727.613281 1201.816406 3061.878906 1158.398438 3118.390625 Z M 1142.917969 0.00390625 C 512.710938 0.00390625 0 512.71875 0 1142.902344 C 0 1749.722656 1032.800781 3100.152344 1076.757812 3157.339844 L 1117.578125 3210.441406 C 1123.628906 3218.320312 1132.988281 3222.929688 1142.917969 3222.929688 C 1152.839844 3222.929688 1162.199219 3218.320312 1168.246094 3210.441406 L 1209.078125 3157.339844 C 1253.039062 3100.121094 2285.816406 1749.082031 2285.816406 1142.902344 C 2285.816406 512.71875 1773.117188 0.00390625 1142.917969 0.00390625" fill="#333"/></g><g id="change1_3"><path d="M 1449.582031 1288.992188 L 1147.550781 1555.738281 L 850.378906 1293.738281 C 698.953125 1142.320312 700.003906 1081.464844 718.894531 1005.914062 C 733.386719 947.925781 773.09375 872.523438 879.929688 842.554688 C 895.609375 838.140625 911.441406 836.132812 927.214844 836.132812 C 1001.769531 836.132812 1075.121094 880.945312 1124.859375 930.066406 C 1137.269531 942.574219 1159.101562 941.085938 1171.640625 928.703125 C 1230.539062 870.554688 1325.449219 817.386719 1415.199219 842.554688 C 1522.039062 872.523438 1561.738281 947.925781 1576.238281 1005.914062 C 1596.519531 1087.039062 1582.109375 1156.375 1449.582031 1288.992188 Z M 1432.460938 781 C 1326.96875 751.417969 1220.011719 801.53125 1147.570312 864.003906 C 1075.128906 801.53125 968.128906 751.417969 862.664062 781 C 756.261719 810.859375 683.179688 885.214844 656.878906 990.40625 C 630.320312 1096.660156 645.960938 1179.738281 806.640625 1340.320312 L 1117.75 1614.679688 C 1126.25 1622.167969 1136.910156 1625.917969 1147.570312 1625.917969 C 1158.230469 1625.917969 1168.878906 1622.167969 1177.378906 1614.679688 L 1493.339844 1335.554688 C 1628.171875 1200.726562 1667.449219 1107.164062 1638.25 990.40625 C 1611.949219 885.214844 1538.871094 810.859375 1432.460938 781" fill="#333"/></g><g id="change1_4"><path d="M 1380.421875 3559.199219 L 1423.398438 3449.730469 L 1469.410156 3559.199219 Z M 1547.011719 3578.851562 C 1546.96875 3578.769531 1546.929688 3578.679688 1546.890625 3578.589844 L 1451.839844 3352.46875 C 1451.820312 3352.410156 1451.78125 3352.359375 1451.75 3352.300781 C 1451.109375 3350.800781 1450.28125 3349.390625 1449.421875 3348.011719 C 1449.160156 3347.601562 1448.980469 3347.128906 1448.710938 3346.730469 C 1447.878906 3345.519531 1446.859375 3344.429688 1445.851562 3343.328125 C 1444.039062 3341.351562 1442.078125 3339.539062 1439.859375 3338.101562 C 1439.46875 3337.839844 1439.011719 3337.671875 1438.601562 3337.441406 C 1437.199219 3336.609375 1435.78125 3335.808594 1434.28125 3335.210938 C 1434.199219 3335.179688 1434.140625 3335.128906 1434.058594 3335.101562 C 1433.378906 3334.839844 1432.691406 3334.738281 1432 3334.53125 C 1430.738281 3334.128906 1429.480469 3333.710938 1428.171875 3333.460938 C 1427.359375 3333.320312 1426.558594 3333.308594 1425.75 3333.21875 C 1424.46875 3333.089844 1423.199219 3332.929688 1421.898438 3332.949219 C 1421.121094 3332.960938 1420.371094 3333.101562 1419.601562 3333.171875 C 1418.289062 3333.289062 1416.980469 3333.378906 1415.671875 3333.660156 C 1414.941406 3333.820312 1414.269531 3334.101562 1413.550781 3334.308594 C 1412.359375 3334.648438 1411.171875 3334.898438 1410 3335.390625 C 1409.871094 3335.441406 1409.769531 3335.53125 1409.648438 3335.578125 C 1409.410156 3335.679688 1409.199219 3335.839844 1408.980469 3335.949219 C 1403.351562 3338.550781 1398.769531 3342.539062 1395.601562 3347.410156 C 1395.519531 3347.539062 1395.460938 3347.710938 1395.371094 3347.851562 C 1394.339844 3349.480469 1393.441406 3351.199219 1392.730469 3352.988281 C 1392.699219 3353.050781 1392.660156 3353.109375 1392.628906 3353.171875 L 1304.101562 3578.679688 C 1304.078125 3578.710938 1304.078125 3578.738281 1304.058594 3578.769531 L 1255.488281 3702.480469 C 1249.039062 3718.910156 1257.128906 3737.449219 1273.570312 3743.910156 C 1277.398438 3745.410156 1281.351562 3746.128906 1285.230469 3746.128906 C 1297.988281 3746.128906 1310.050781 3738.429688 1314.988281 3725.839844 L 1355.320312 3623.121094 L 1496.28125 3623.121094 L 1539.75 3726.539062 C 1544.890625 3738.769531 1556.738281 3746.128906 1569.230469 3746.128906 C 1573.351562 3746.128906 1577.550781 3745.320312 1581.601562 3743.621094 C 1597.871094 3736.789062 1605.519531 3718.050781 1598.679688 3701.78125 L 1547.011719 3578.851562" fill="#333"/></g><g id="change1_5"><path d="M 2037.554688 3503.339844 L 2037.554688 3401.992188 L 2226.335938 3401.992188 C 2243.988281 3401.992188 2258.300781 3387.679688 2258.300781 3370.019531 C 2258.300781 3352.371094 2243.988281 3338.058594 2226.335938 3338.058594 L 2005.605469 3338.058594 C 1987.953125 3338.058594 1973.644531 3352.371094 1973.644531 3370.019531 L 1973.644531 3708.980469 C 1973.644531 3726.628906 1987.953125 3740.941406 2005.605469 3740.941406 L 2226.335938 3740.941406 C 2243.988281 3740.941406 2258.300781 3726.628906 2258.300781 3708.980469 C 2258.300781 3691.320312 2243.988281 3677.019531 2226.335938 3677.019531 L 2037.554688 3677.019531 L 2037.554688 3567.261719 L 2209.351562 3567.261719 C 2215.613281 3567.261719 2221.40625 3565.390625 2226.335938 3562.28125 C 2235.316406 3556.621094 2241.3125 3546.6875 2241.3125 3535.300781 C 2241.3125 3523.898438 2235.316406 3513.96875 2226.335938 3508.3125 C 2221.40625 3505.199219 2215.613281 3503.339844 2209.351562 3503.339844 L 2037.554688 3503.339844" fill="#333"/></g><g id="change1_6"><path d="M 926.015625 3708.980469 L 926.015625 3465.910156 L 1001.191406 3566.140625 L 1122.710938 3728.148438 C 1128.859375 3736.359375 1138.410156 3740.941406 1148.28125 3740.941406 C 1151.648438 3740.941406 1155.058594 3740.410156 1158.378906 3739.289062 C 1171.429688 3734.949219 1180.230469 3722.730469 1180.230469 3708.980469 L 1180.230469 3370.019531 C 1180.230469 3352.371094 1165.921875 3338.058594 1148.269531 3338.058594 C 1130.621094 3338.058594 1116.308594 3352.371094 1116.308594 3370.019531 L 1116.308594 3613.101562 L 1041.140625 3512.871094 L 919.621094 3350.851562 C 911.367188 3339.828125 897.003906 3335.328125 883.945312 3339.710938 C 870.894531 3344.058594 862.09375 3356.269531 862.09375 3370.019531 L 862.09375 3708.980469 C 862.09375 3726.628906 876.402344 3740.941406 894.054688 3740.941406 C 911.703125 3740.941406 926.015625 3726.628906 926.015625 3708.980469" fill="#333"/></g><g id="change1_7"><path d="M 91.445312 3401.988281 L 189.503906 3401.988281 C 219.023438 3401.988281 246.179688 3414.75 264 3437 C 287.117188 3465.878906 299.851562 3503.039062 299.851562 3541.609375 C 299.851562 3559.261719 297.246094 3576.570312 292.09375 3593.070312 C 278.667969 3636.160156 242.167969 3667.691406 196.828125 3675.332031 C 190.214844 3676.449219 183.433594 3677.019531 176.664062 3677.019531 L 91.445312 3677.019531 Z M 176.664062 3740.941406 C 186.996094 3740.941406 197.367188 3740.070312 207.476562 3738.359375 C 276.683594 3726.691406 332.488281 3678.300781 353.117188 3612.101562 C 360.1875 3589.429688 363.769531 3565.71875 363.769531 3541.609375 C 363.769531 3488.558594 346.058594 3437.21875 313.894531 3397.050781 C 283.875 3359.570312 238.535156 3338.058594 189.503906 3338.058594 L 59.484375 3338.058594 C 41.832031 3338.058594 27.523438 3352.371094 27.523438 3370.019531 L 27.523438 3708.980469 C 27.523438 3726.628906 41.832031 3740.941406 59.484375 3740.941406 L 176.664062 3740.941406" fill="#333"/></g><g id="change1_8"><path d="M 1760 3746.210938 C 1777.652344 3746.210938 1791.964844 3731.910156 1791.964844 3714.25 L 1791.964844 3396.710938 L 1891.289062 3396.710938 C 1908.941406 3396.710938 1923.253906 3382.410156 1923.253906 3364.75 C 1923.253906 3347.101562 1908.941406 3332.789062 1891.289062 3332.789062 L 1632.59375 3332.789062 C 1614.941406 3332.789062 1600.628906 3347.101562 1600.628906 3364.75 C 1600.628906 3382.410156 1614.941406 3396.710938 1632.59375 3396.710938 L 1728.050781 3396.710938 L 1728.050781 3714.25 C 1728.050781 3731.910156 1742.347656 3746.210938 1760 3746.210938" fill="#333"/></g><g id="change1_9"><path d="M 481.5 3539.5 C 481.5 3458.679688 537.675781 3392.921875 606.722656 3392.921875 C 675.773438 3392.921875 731.953125 3458.679688 731.953125 3539.5 C 731.953125 3620.328125 675.773438 3686.082031 606.722656 3686.082031 C 537.675781 3686.082031 481.5 3620.328125 481.5 3539.5 Z M 795.875 3539.5 C 795.875 3423.429688 711.019531 3329 606.722656 3329 C 502.425781 3329 417.578125 3423.429688 417.578125 3539.5 C 417.578125 3655.582031 502.425781 3750 606.722656 3750 C 711.019531 3750 795.875 3655.582031 795.875 3539.5" fill="#333"/></g></g></svg>